<?xml version="1.0" standalone="no"?>
<!DOCTYPE svg PUBLIC "-//W3C//DTD SVG 20010904//EN"
 "http://www.w3.org/TR/2001/REC-SVG-20010904/DTD/svg10.dtd">
<svg version="1.0" xmlns="http://www.w3.org/2000/svg"
 width="720.000000pt" height="720.000000pt" viewBox="0 0 720.000000 720.000000"
 preserveAspectRatio="xMidYMid meet">
<metadata>
Created by potrace 1.11, written by Peter Selinger 2001-2013
</metadata>
<g transform="translate(0.000000,720.000000) scale(0.100000,-0.100000)"
fill="#000000" stroke="none">
<path d="M3529 6514 c-7 -9 -12 -30 -12 -47 1 -34 40 -281 49 -308 3 -13 -4
-18 -31 -21 -34 -4 -38 -1 -56 33 -10 21 -28 62 -39 91 -12 29 -28 59 -37 66
-38 28 -93 1 -93 -46 0 -51 143 -343 225 -462 36 -51 74 -63 106 -34 26 23 24
60 -6 113 -14 23 -25 54 -25 68 0 23 1 23 22 9 27 -19 69 -21 86 -4 17 17 15
70 -3 94 -21 28 -19 32 20 31 57 -2 64 18 65 165 0 120 -1 128 -22 142 -30 21
-54 20 -78 -4 -17 -17 -20 -34 -21 -102 l-1 -83 -19 110 c-28 172 -29 173 -45
190 -20 20 -68 19 -85 -1z"/>
<path d="M3837 6372 c-23 -25 -23 -187 0 -301 14 -74 15 -85 2 -95 -8 -6 -24
-49 -35 -96 l-20 -85 -62 -11 c-71 -13 -102 -35 -102 -74 0 -39 29 -60 82 -60
40 0 47 -3 52 -25 4 -14 17 -32 30 -40 31 -20 70 -4 88 37 13 28 14 28 95 28
76 0 83 -2 83 -20 0 -33 33 -42 125 -34 101 8 100 9 49 -92 -41 -80 -41 -113
1 -132 44 -20 69 -1 119 90 61 113 81 130 169 145 39 6 73 10 75 8 2 -2 -7
-20 -20 -42 -39 -62 -70 -142 -63 -164 9 -27 48 -51 71 -43 10 3 34 23 52 43
20 23 35 32 40 25 4 -6 17 -16 29 -23 36 -19 67 1 87 56 27 74 28 76 114 114
44 19 88 41 96 48 21 17 21 65 0 85 -23 23 -54 20 -128 -14 -36 -16 -66 -27
-66 -25 0 2 20 18 45 35 47 32 57 60 35 101 -8 15 -7 19 5 19 23 0 55 37 55
63 0 32 -30 57 -66 57 -16 -1 -56 -7 -89 -15 -33 -8 -63 -15 -67 -15 -16 0 -7
22 27 71 40 59 43 81 15 109 -38 38 -74 23 -124 -53 -40 -60 -56 -98 -56 -132
0 -29 9 -26 -203 -64 -121 -22 -164 -34 -181 -50 -33 -31 -92 -29 -118 4 -11
14 -28 25 -39 25 -25 0 -24 1 10 57 l30 47 7 -29 c16 -67 67 -85 104 -38 15
20 20 36 16 55 -3 16 -8 63 -12 106 l-7 78 57 61 c31 33 56 68 56 76 0 47 -41
74 -86 56 -22 -8 -29 -6 -41 11 -17 24 -65 27 -87 5 -8 -8 -40 -51 -71 -95
-31 -44 -61 -78 -66 -75 -5 4 -9 52 -9 109 0 87 -3 105 -18 119 -24 22 -65 21
-85 -1z m853 -596 c0 -8 -10 -16 -22 -19 -47 -12 -260 -38 -265 -33 -3 3 5 7
18 10 13 3 74 16 134 30 135 29 135 29 135 12z"/>
<path d="M3026 6194 c-26 -25 -19 -68 15 -105 18 -19 47 -54 66 -78 l34 -45
-24 -13 c-14 -7 -28 -24 -31 -38 -6 -23 -8 -24 -22 -10 -20 20 -68 19 -88 -1
-9 -8 -16 -27 -16 -41 0 -51 -8 -17 -19 74 -11 106 -30 143 -71 143 -39 0 -60
-28 -60 -81 l-1 -44 -39 45 c-22 25 -55 71 -72 104 -36 66 -65 85 -103 68 -40
-19 -41 -51 -1 -128 20 -38 52 -88 72 -111 36 -43 36 -43 12 -43 -46 0 -71
-48 -48 -91 12 -22 10 -22 -22 -10 -17 6 -37 36 -68 104 -50 106 -73 126 -118
105 -18 -9 -28 -23 -30 -40 -4 -32 93 -253 118 -271 9 -7 20 -32 24 -56 13
-84 69 -141 120 -122 43 17 51 45 25 98 -12 25 -23 61 -25 81 -5 61 19 17 61
-113 21 -66 44 -132 52 -147 13 -26 12 -28 -14 -33 -16 -4 -54 -14 -87 -24
-45 -14 -65 -16 -86 -8 -22 8 -33 7 -54 -6 -22 -15 -26 -25 -26 -62 0 -52 8
-52 -136 -9 -132 39 -174 33 -174 -26 0 -49 24 -69 108 -92 49 -13 214 -48
228 -48 3 0 44 -99 44 -106 0 -4 -6 0 -13 10 -11 15 -54 24 -217 48 -201 28
-204 29 -230 10 -29 -22 -37 -59 -17 -86 14 -19 52 -27 305 -61 126 -16 156
-11 166 30 6 25 8 26 25 11 24 -22 67 -20 91 4 20 20 20 31 3 93 -3 12 1 17
15 17 49 0 72 85 30 114 -12 9 -35 16 -50 16 -15 0 -30 5 -33 10 -3 6 1 10 10
10 15 0 175 43 340 92 94 27 258 49 267 35 4 -6 10 -34 13 -62 14 -100 50
-149 106 -143 49 4 66 43 43 95 -32 74 -35 104 -12 140 17 28 19 43 13 94 -8
69 -24 89 -69 89 -27 0 -36 -6 -52 -37 l-20 -38 -128 -16 c-127 -15 -128 -15
-137 5 -7 17 -39 164 -39 180 0 3 12 6 27 8 16 2 32 12 39 26 11 22 11 22 29
2 10 -11 24 -20 31 -20 7 0 33 -13 57 -30 34 -22 55 -29 93 -29 27 -1 77 -1
111 -2 38 -1 68 3 78 11 26 21 18 70 -22 129 -20 31 -56 84 -79 119 -35 53
-41 69 -37 100 7 50 -28 96 -66 89 -23 -5 -34 4 -85 64 -63 73 -96 87 -130 53z
m-205 -426 c18 -7 46 -139 33 -159 -4 -7 -3 -9 3 -6 7 4 13 -12 17 -41 4 -26
10 -56 13 -67 3 -11 2 -17 -2 -13 -4 4 -29 69 -54 145 -26 76 -51 147 -56 158
-8 19 -7 19 11 4 10 -9 26 -18 35 -21z"/>
<path d="M2213 5603 c-30 -6 -73 -58 -73 -89 0 -77 104 -184 180 -184 85 0
133 114 74 174 -15 14 -31 26 -35 26 -5 0 -23 15 -41 34 -33 34 -65 46 -105
39z"/>
<path d="M4891 5480 c-28 -22 -65 -60 -83 -85 -18 -25 -46 -62 -61 -83 -25
-32 -28 -43 -23 -79 5 -39 3 -45 -22 -60 -15 -10 -30 -22 -34 -28 -12 -17 -9
-72 5 -83 7 -6 58 -22 114 -35 55 -14 108 -29 118 -34 10 -6 37 -8 60 -5 41 4
43 3 61 -34 16 -34 24 -39 56 -42 34 -3 40 0 58 31 11 19 47 56 80 81 64 50
82 85 61 119 -11 17 -8 23 23 49 39 32 45 60 21 92 -24 32 -64 23 -157 -36
-86 -54 -88 -55 -139 -47 -29 5 -56 6 -61 3 -4 -3 -8 -2 -8 3 1 12 250 150
285 158 36 8 75 42 75 65 0 30 -30 60 -60 60 -42 0 -116 -30 -202 -82 -40 -24
-82 -47 -93 -51 -19 -7 -19 -6 1 10 26 22 54 74 54 102 0 22 -35 51 -61 51
-10 0 -40 -18 -68 -40z m38 -315 c-19 -31 -49 -48 -49 -27 0 6 59 61 67 62 1
0 -7 -16 -18 -35z"/>
<path d="M4224 5316 c-206 -82 -245 -110 -231 -168 4 -14 18 -31 32 -38 24
-13 32 -11 98 22 40 19 106 48 147 63 41 14 86 32 99 38 47 23 50 100 4 118
-32 12 -23 14 -149 -35z"/>
<path d="M1621 4941 c-12 -12 -21 -32 -21 -46 0 -40 35 -54 150 -61 100 -6
185 -27 249 -60 34 -18 51 -18 79 2 25 17 31 74 9 93 -8 6 -56 26 -109 45 -79
28 -115 35 -215 41 -115 7 -122 6 -142 -14z"/>
<path d="M3088 4525 c-6 -6 -129 -19 -343 -36 -150 -12 -185 -22 -185 -56 0
-7 -4 -13 -8 -13 -4 0 -13 -15 -20 -33 -7 -18 -21 -43 -32 -54 -59 -64 -10
-160 63 -122 28 15 40 31 73 96 l27 52 96 5 c171 8 325 23 352 34 15 6 53 15
85 21 33 6 64 18 72 28 17 24 15 70 -4 77 -19 7 -169 8 -176 1z"/>
<path d="M4065 4503 c-71 -5 -175 -25 -181 -34 -12 -19 26 -57 72 -73 32 -11
82 -16 150 -16 56 0 136 -5 177 -10 51 -7 101 -8 154 -1 52 7 79 6 82 0 2 -6
14 -22 26 -37 19 -22 26 -25 36 -14 15 14 49 16 49 3 0 -5 -7 -11 -15 -15 -21
-8 -19 -29 4 -43 10 -7 27 -33 36 -58 11 -28 23 -44 31 -41 7 3 15 -2 18 -10
4 -11 13 -13 28 -9 32 10 48 33 48 72 0 48 -30 100 -94 163 -31 30 -56 59 -56
65 -1 5 -10 21 -21 35 -19 22 -28 25 -83 22 -108 -4 -340 -5 -381 0 -22 2 -58
3 -80 1z"/>
<path d="M2843 4128 c-27 -29 -60 -72 -73 -95 -13 -24 -27 -43 -32 -43 -4 0
-8 -6 -8 -14 0 -8 -9 -24 -19 -37 l-20 -24 6 23 c3 12 9 22 13 22 4 0 10 10
12 23 4 23 4 23 -60 -10 -36 -18 -71 -33 -78 -33 -57 0 -90 -60 -59 -106 15
-23 21 -25 58 -20 23 3 49 7 57 7 8 1 42 16 75 33 56 29 66 40 148 164 49 74
91 132 93 129 8 -7 -18 -57 -27 -51 -4 2 -11 -11 -14 -30 -4 -19 -14 -43 -23
-53 -17 -18 -26 -43 -18 -43 3 0 19 20 37 45 31 44 34 45 83 44 28 -1 40 -4
26 -6 -38 -7 -60 -32 -60 -70 0 -26 -4 -33 -19 -33 -42 0 -61 -31 -68 -106 -8
-95 1 -141 30 -150 26 -9 57 -6 74 8 7 5 26 7 42 3 17 -3 39 -1 51 5 25 14 50
67 50 108 0 17 10 38 25 52 14 13 25 33 25 45 0 30 -28 65 -53 65 -14 0 -28
11 -39 30 -9 17 -15 30 -12 30 10 0 48 -23 68 -42 32 -29 97 -21 114 14 15 33
1 78 -28 85 -11 3 -20 9 -20 14 0 5 -29 23 -63 39 -56 26 -75 30 -154 30 l-90
0 -50 -52z m-179 -263 c-23 -36 -29 -24 -8 17 9 18 19 28 21 21 2 -6 -3 -23
-13 -38z"/>
<path d="M3987 4098 c-34 -36 -69 -67 -77 -70 -14 -5 32 -62 155 -190 19 -20
45 -54 57 -75 13 -21 31 -46 40 -55 10 -10 18 -23 18 -28 0 -15 29 -44 72 -74
25 -16 54 -25 89 -28 50 -3 54 -1 63 24 7 20 5 33 -8 52 -14 21 -24 26 -61 26
l-44 0 15 35 c18 44 17 150 -2 187 -13 24 -12 27 1 22 8 -4 15 -10 15 -15 0
-22 21 -6 40 30 20 40 37 57 46 48 7 -7 -11 -40 -32 -61 -23 -24 -11 -42 47
-71 56 -29 54 -30 92 36 l26 46 -27 14 c-15 7 -38 21 -51 31 -13 10 -29 18
-36 18 -7 0 -27 13 -44 29 -17 16 -62 50 -102 77 -68 47 -74 49 -151 53 l-79
3 -62 -64z m169 -68 c15 -6 40 -22 56 -35 l30 -25 -45 0 c-25 0 -53 -3 -62 -6
-14 -6 -16 -1 -14 22 2 16 0 35 -4 42 -10 15 3 15 39 2z"/>
<path d="M4541 3867 c-17 -25 -31 -50 -31 -56 0 -11 56 -41 78 -41 8 0 29 -9
46 -20 49 -30 107 -36 133 -13 32 28 36 56 12 86 -11 15 -26 27 -34 27 -7 0
-37 11 -66 24 -97 44 -103 44 -138 -7z"/>
<path d="M4010 3746 c0 -16 18 -31 27 -22 3 3 -2 12 -11 21 -14 14 -16 14 -16
1z"/>
<path d="M3483 3699 c-7 -7 -13 -30 -13 -50 0 -40 7 -45 103 -68 110 -26 162
-6 155 60 -2 26 -10 37 -32 48 -41 19 -197 27 -213 10z"/>
<path d="M3020 3665 c-14 -8 -53 -15 -90 -15 -88 0 -106 -7 -120 -41 -10 -24
-10 -33 4 -54 9 -14 19 -25 22 -25 12 0 51 25 117 76 39 30 81 54 93 54 13 0
26 5 29 10 9 15 -26 12 -55 -5z"/>
<path d="M4034 3655 c-4 -9 6 -33 20 -55 22 -34 31 -40 62 -40 l35 0 -43 55
c-44 56 -64 67 -74 40z"/>
<path d="M3174 3625 c-9 -14 -35 -37 -58 -51 -22 -14 -33 -23 -23 -20 10 3 36
6 58 6 32 0 41 5 52 28 14 28 12 62 -4 62 -4 0 -16 -11 -25 -25z"/>
<path d="M5163 3547 c-22 -36 -28 -54 -20 -59 15 -9 -45 -73 -88 -95 -63 -33
-85 -92 -47 -126 41 -38 101 -13 205 85 59 55 61 58 65 116 4 58 3 62 -32 96
-19 20 -39 36 -43 36 -4 0 -22 -24 -40 -53z"/>
<path d="M1998 3534 c-68 -34 -78 -54 -78 -153 0 -123 17 -170 91 -252 13 -15
32 -36 41 -48 25 -30 73 -28 94 4 23 36 11 86 -32 132 -51 53 -64 84 -64 146
0 48 3 55 25 65 14 7 35 12 45 12 18 0 17 4 -11 60 -34 68 -41 70 -111 34z"/>
<path d="M2200 3540 c6 -11 7 -20 3 -20 -4 0 -3 -4 2 -8 6 -4 21 -20 33 -36
l21 -28 12 25 c17 38 -12 87 -52 87 -27 0 -29 -2 -19 -20z"/>
<path d="M3407 2243 c-4 -3 -7 -55 -7 -115 0 -108 0 -109 23 -106 19 3 22 10
25 58 1 29 4 56 6 58 3 2 19 -24 38 -57 25 -47 38 -61 56 -61 22 0 23 1 20
113 -2 92 -6 112 -18 112 -11 0 -16 -16 -20 -65 l-5 -65 -19 30 c-11 17 -30
47 -43 68 -22 35 -41 45 -56 30z"/>
<path d="M3632 2234 c-39 -27 -25 -124 18 -124 23 0 25 -15 5 -50 -19 -34 -18
-40 5 -40 14 0 29 19 55 70 42 82 43 103 10 135 -28 29 -61 32 -93 9z m68 -53
c0 -17 -4 -32 -9 -35 -17 -11 -41 6 -41 28 0 27 8 36 32 36 13 0 18 -8 18 -29z"/>
<path d="M3780 2181 c0 -65 8 -78 41 -60 30 15 54 -9 45 -45 -6 -26 -29 -35
-41 -16 -11 18 -47 12 -43 -7 5 -28 51 -45 84 -32 36 13 44 25 44 72 0 47 -31
81 -66 73 -20 -5 -24 -3 -24 18 0 22 5 25 43 28 64 5 50 23 -20 26 l-63 3 0
-60z"/>
<path d="M4178 1935 c-31 -19 -90 -48 -130 -65 -40 -17 -84 -37 -98 -45 -95
-56 -102 -57 -279 -52 -180 4 -257 20 -396 78 -85 36 -105 36 -138 4 -52 -53
-42 -110 35 -191 108 -113 164 -145 327 -185 71 -18 106 -20 245 -17 181 5
235 20 277 77 13 17 26 31 30 31 4 0 24 15 43 33 29 26 37 42 42 82 8 61 23
92 62 131 43 41 62 92 48 126 l-11 26 -57 -33z"/>
<path d="M4584 1366 c-16 -13 -27 -27 -24 -29 3 -3 18 6 34 19 15 14 26 27 23
30 -2 3 -18 -6 -33 -20z"/>
<path d="M2095 1271 c-3 -5 -20 -12 -38 -16 -71 -14 -70 -13 -42 -47 55 -65
13 -168 -68 -168 -55 0 -113 -26 -226 -100 -58 -39 -111 -70 -118 -70 -26 0
-12 -17 55 -67 142 -107 229 -195 366 -373 97 -125 185 -219 214 -227 44 -10
70 -33 82 -69 14 -42 -1 -97 -33 -119 -19 -14 -7 -15 139 -15 148 0 163 2 188
21 14 11 26 16 26 11 0 -26 74 -32 394 -32 l331 0 28 25 c40 38 38 100 -3 140
-16 16 -30 25 -30 20 0 -5 -5 -4 -12 3 -7 7 -26 12 -44 12 -28 0 -46 16 -145
121 -250 265 -366 383 -414 421 -27 22 -89 77 -137 122 -125 117 -303 275
-330 294 -13 8 -51 39 -85 69 -59 51 -86 63 -98 44z"/>
<path d="M4733 1203 c-24 -36 -226 -237 -289 -287 -49 -39 -220 -208 -261
-259 -46 -56 -122 -186 -136 -233 -13 -43 -65 -151 -168 -347 -14 -28 -34 -56
-45 -64 -15 -11 68 -13 516 -13 523 0 534 0 555 20 18 17 21 29 17 70 -4 44
-2 52 26 80 21 20 40 30 61 30 34 0 31 -2 126 143 35 54 81 121 102 150 56 76
170 256 194 305 l21 44 -39 33 c-21 18 -84 56 -138 85 -55 29 -149 85 -210
125 -60 39 -146 86 -190 102 -125 48 -121 47 -142 16z"/>
<path d="M5340 1166 c0 -7 90 -59 95 -54 5 4 -53 44 -77 54 -10 3 -18 4 -18 0z"/>
<path d="M1451 886 c-15 -18 4 -26 42 -19 22 4 25 8 16 19 -15 18 -43 18 -58
0z"/>
<path d="M3650 170 c-41 -44 -41 -93 -1 -138 17 -17 35 -32 42 -32 7 0 1 13
-14 28 -35 37 -38 104 -5 139 12 13 19 26 15 29 -4 4 -20 -8 -37 -26z"/>
<path d="M2088 3 c6 -2 18 -2 25 0 6 3 1 5 -13 5 -14 0 -19 -2 -12 -5z"/>
</g>
</svg>
